<?xml version="1.0" encoding="utf-8"?>
<svg viewBox="0 0 370 92.2687" width="370" height="92.2687" xmlns="http://www.w3.org/2000/svg">
    <g id="SvgjsG1679" transform="matrix(0.1775231957435608, 0, 0, 0.1775231957435608, -3.673548460006714, -8.937277793884277)" fill="#111111">
        <g xmlns="http://www.w3.org/2000/svg" transform="translate(0.000000,600.000000) scale(0.100000,-0.100000)" fill="#111111" stroke="none">
            <path d="M3160 5494 c-413 -40 -538 -58 -1080 -155 -155 -28 -278 -43 -395 -50 -93 -6 -180 -14 -193 -20 -60 -24 -71 -138 -43 -444 30 -320 43 -400 117 -725 123 -538 223 -920 259 -995 31 -64 95 -145 114 -145 4 0 7 69 7 153 l-1 152 -107 325 c-219 667 -274 863 -318 1130 -37 217 -49 440 -28 480 l14 25 149 -3 c114 -3 223 4 450 27 611 62 636 63 949 62 323 -2 380 -8 585 -61 132 -35 148 -36 177 -12 36 29 51 64 53 123 3 86 -10 96 -144 114 -109 15 -478 27 -565 19z"/>
            <path d="M4148 5382 c-76 -39 -361 -236 -506 -349 -170 -133 -958 -880 -1028 -976 -40 -54 -84 -150 -84 -182 0 -17 16 -20 25 -5 3 5 38 25 78 43 110 52 170 105 368 327 266 298 500 549 635 680 252 245 578 477 637 454 7 -2 44 -64 83 -137 43 -78 131 -214 218 -334 211 -293 458 -646 481 -690 11 -21 66 -122 122 -224 114 -206 139 -266 189 -449 19 -69 43 -133 53 -143 41 -42 138 -29 199 26 31 29 28 56 -19 165 -151 353 -337 629 -790 1172 -303 363 -324 390 -409 525 -34 55 -72 108 -84 117 -34 28 -87 22 -168 -20z"/>
            <path d="M1182 4845 c-69 -78 -232 -321 -287 -428 -134 -257 -244 -526 -449 -1092 -42 -115 -115 -290 -163 -387 -98 -202 -98 -206 -19 -274 45 -39 299 -167 522 -262 239 -102 1292 -421 1444 -437 100 -11 240 21 184 41 -10 4 -39 23 -64 42 -100 76 -163 96 -540 176 -636 134 -854 189 -1060 264 -304 111 -479 200 -495 251 -4 14 17 56 71 142 45 73 114 207 169 328 270 601 329 722 482 975 140 233 165 266 303 410 101 106 110 118 110 153 -1 51 -16 76 -70 112 -64 43 -90 41 -138 -14z"/>
            <path d="M3692 3829 c-90 -15 -90 -20 0 -78 132 -87 164 -97 535 -176 668 -141 871 -192 1108 -281 262 -98 455 -200 455 -242 0 -10 -32 -69 -72 -132 -39 -63 -107 -194 -151 -290 -323 -714 -342 -753 -510 -1030 -131 -217 -174 -274 -324 -431 -87 -90 -94 -105 -72 -167 13 -39 93 -92 137 -92 27 0 39 9 77 58 95 119 244 352 302 472 149 305 205 442 389 950 80 218 139 364 195 473 43 87 79 170 79 184 0 51 -82 114 -262 201 -353 173 -466 215 -1008 377 -657 197 -766 222 -878 204z"/>
            <path d="M2881 3290 c-65 -23 -101 -46 -101 -63 0 -7 -22 -29 -49 -50 -64 -47 -98 -106 -118 -203 -14 -70 -14 -80 1 -111 9 -18 16 -44 16 -57 0 -56 32 -126 81 -180 59 -65 105 -95 151 -101 18 -2 60 -13 93 -25 70 -26 133 -22 217 11 75 29 218 175 241 245 27 81 32 159 13 188 -9 14 -16 38 -16 54 0 16 -7 49 -16 75 -28 81 -148 197 -204 197 -15 0 -47 9 -71 20 -58 26 -165 26 -238 0z"/>
            <path d="M4095 2688 l1 -153 106 -320 c102 -308 214 -669 257 -825 74 -273 124 -709 91 -796 l-11 -27 -147 6 c-116 5 -196 1 -382 -18 -711 -72 -676 -70 -1020 -67 -345 2 -354 3 -582 59 -140 35 -147 36 -172 20 -38 -25 -57 -60 -62 -115 -6 -62 8 -100 42 -112 42 -16 329 -41 474 -41 284 0 564 34 1227 152 211 37 325 52 449 58 192 11 209 18 232 92 22 72 2 407 -43 719 -18 123 -125 591 -230 1010 -79 313 -112 400 -179 473 -19 20 -39 37 -43 37 -4 0 -8 -69 -8 -152z"/>
            <path d="M466 2402 c-68 -39 -74 -57 -46 -134 41 -114 167 -366 234 -467 176 -269 310 -443 710 -920 101 -121 212 -266 256 -335 43 -67 87 -131 98 -143 33 -35 92 -31 177 13 110 56 477 317 610 434 194 171 844 793 908 869 46 56 86 134 94 187 6 37 5 38 -13 23 -10 -8 -59 -34 -107 -58 -107 -52 -149 -91 -446 -424 -117 -130 -289 -319 -384 -419 -316 -334 -728 -646 -793 -601 -6 5 -42 66 -81 138 -40 74 -132 216 -214 330 -183 253 -392 551 -446 635 -22 36 -92 160 -156 275 -113 208 -167 341 -207 513 -17 74 -44 103 -100 108 -36 3 -55 -2 -94 -24z"/>
        </g>
    </g>
    <g id="SvgjsG1680" featurekey="j5pGhi-0" transform="matrix(4.710211753845215, 0, 0, 4.710211753845215, 111.39820861816406, -19.619873046875)" fill="#111111">
        <path d="M1.8262 4.941000000000001 l2.8809 0 q2.412109375 0 3.271484375 0.1953125 q1.2890625 0.29296875 2.099609375 1.264648438 t0.81055 2.3877 q0 1.19140625 -0.556640625 2.080078125 t-1.5967 1.3525 t-1.8018 0.46387 l4.1504 6.7383 l-1.7773 0 l-4.1504 -6.7383 l-1.8848 0 l0 6.7383 l-1.4453 0 l0 -14.482 z M3.2715 6.356999999999999 l0 4.9219 l2.4902 0.019531 q1.4453125 0 2.143554688 -0.2734375 t1.084 -0.87891 t0.38574 -1.3574 q0 -0.72265625 -0.3955078125 -1.318359375 t-1.0303 -0.85449 t-2.1289 -0.25879 l-2.5488 0 z M18.808596875 8.203 q2.470703125 0 4.1015625 1.787109375 q1.474609375 1.640625 1.474609375 3.876953125 t-1.5625 3.9111 t-4.0137 1.6748 q-2.4609375 0 -4.018554688 -1.674804688 t-1.5576 -3.9111 q0 -2.2265625 1.474609375 -3.8671875 q1.630859375 -1.796875 4.1015625 -1.796875 z M18.808596875 9.551 q-1.708984375 0 -2.939453125 1.26953125 t-1.2305 3.0664 q0 1.162109375 0.5615234375 2.172851563 t1.5186 1.5527 t2.0898 0.54199 q1.15234375 0 2.104492188 -0.5419921875 t1.5088 -1.5527 t0.55664 -2.1729 q0 -1.796875 -1.23046875 -3.06640625 t-2.9395 -1.2695 z M27.783225 10.332 q-0.87890625 1.46484375 -1.0546875 2.880859375 q0 10.16601563 0 10.14648438 l1.3672 0 l0 -5.9766 q0.869140625 1.064453125 1.943359375 1.586914063 t2.3535 0.52246 q2.265625 0 3.876953125 -1.650390625 t1.6113 -4.0039 q0 -2.314453125 -1.62109375 -3.955078125 t-3.9063 -1.6406 q-1.30859375 0 -2.456054688 0.5029296875 t-2.1143 1.5869 z M32.236325 9.561 q1.162109375 0 2.133789063 0.5712890625 t1.5479 1.5869 t0.57617 2.168 q0 1.1328125 -0.5810546875 2.172851563 t-1.5625 1.6113 t-2.0947 0.57129 q-1.1328125 0 -2.1484375 -0.5712890625 t-1.5625 -1.5527 t-0.54688 -2.1924 q0 -1.865234375 1.23046875 -3.115234375 t3.0078 -1.25 z M49.658328125 15.6348 l1.1523 0.61523 q-0.556640625 1.123046875 -1.30859375 1.806640625 t-1.6895 1.04 t-2.1191 0.35645 q-2.6171875 0 -4.091796875 -1.713867188 t-1.4746 -3.8721 q0 -2.041015625 1.25 -3.6328125 q1.58203125 -2.03125 4.248046875 -2.03125 q2.724609375 0 4.365234375 2.080078125 q1.162109375 1.46484375 1.171875 3.65234375 l-9.6191 0 q0.0390625 1.875 1.19140625 3.071289063 t2.8418 1.1963 q0.8203125 0 1.591796875 -0.2880859375 t1.3135 -0.75684 t1.1768 -1.5234 z M49.658328125 12.7539 q-0.2734375 -1.103515625 -0.80078125 -1.762695313 t-1.3965 -1.0645 t-1.8262 -0.40527 q-1.572265625 0 -2.705078125 1.015625 q-0.8203125 0.7421875 -1.240234375 2.216796875 l7.9688 0 z M53.515665625 4.59 l1.3867 0 l0 14.854 l-1.3867 0 l0 -14.854 z"/>
    </g>
</svg>
